<svg xmlns="http://www.w3.org/2000/svg" viewBox="0 0 64 64" role="img" aria-labelledby="title">
  <title>Slackbrahs Fantasy Tool</title>
  <defs>
    <linearGradient id="markGradient" x1="8" y1="4" x2="56" y2="60" gradientUnits="userSpaceOnUse">
      <stop stop-color="#8b5cf6" />
      <stop offset="1" stop-color="#5420b5" />
    </linearGradient>
  </defs>
  <rect width="64" height="64" rx="16" fill="url(#markGradient)" />
  <path d="M14 18h22c6.6 0 11 3.6 11 9 0 3.7-2.2 6.4-5.8 7.8C45.2 36 48 39 48 43c0 5.7-4.7 9-11.8 9H14V18Zm10 7v7h10.5c2.4 0 3.8-1.2 3.8-3.5S36.9 25 34.5 25H24Zm0 14v7h11.2c2.8 0 4.3-1.2 4.3-3.5S38 39 35.2 39H24Z" fill="#fff" />
  <path d="M12 12h11" stroke="#c4b5fd" stroke-width="3" stroke-linecap="round" />
</svg>
